<mxfile host="Electron" agent="Mozilla/5.0 (Windows NT 10.0; Win64; x64) AppleWebKit/537.36 (KHTML, like Gecko) draw.io/28.1.2 Chrome/138.0.7204.243 Electron/37.4.0 Safari/537.36" version="28.1.2">
  <diagram name="Page-1" id="dGn5kLb0wx71UQaM-uPl">
    <mxGraphModel dx="816" dy="516" grid="1" gridSize="10" guides="0" tooltips="1" connect="1" arrows="1" fold="1" page="1" pageScale="1" pageWidth="850" pageHeight="1100" math="0" shadow="0">
      <root>
        <mxCell id="0" />
        <mxCell id="1" parent="0" />
        <mxCell id="D7d0Gn1hYj-LBTfzAuI3-1" value="" style="ellipse;html=1;shape=startState;fillColor=#000000;strokeColor=#ff0000;" vertex="1" parent="1">
          <mxGeometry x="370" y="30" width="30" height="30" as="geometry" />
        </mxCell>
        <mxCell id="D7d0Gn1hYj-LBTfzAuI3-2" value="" style="edgeStyle=orthogonalEdgeStyle;html=1;verticalAlign=bottom;endArrow=open;endSize=8;strokeColor=#ff0000;rounded=0;" edge="1" source="D7d0Gn1hYj-LBTfzAuI3-1" parent="1">
          <mxGeometry relative="1" as="geometry">
            <mxPoint x="385" y="120" as="targetPoint" />
          </mxGeometry>
        </mxCell>
        <mxCell id="D7d0Gn1hYj-LBTfzAuI3-18" style="edgeStyle=orthogonalEdgeStyle;rounded=0;orthogonalLoop=1;jettySize=auto;html=1;" edge="1" parent="1" source="D7d0Gn1hYj-LBTfzAuI3-3">
          <mxGeometry relative="1" as="geometry">
            <mxPoint x="140" y="510" as="targetPoint" />
          </mxGeometry>
        </mxCell>
        <mxCell id="D7d0Gn1hYj-LBTfzAuI3-23" value="Odloži fakturu" style="edgeLabel;html=1;align=center;verticalAlign=middle;resizable=0;points=[];" vertex="1" connectable="0" parent="D7d0Gn1hYj-LBTfzAuI3-18">
          <mxGeometry x="0.4227" y="1" relative="1" as="geometry">
            <mxPoint as="offset" />
          </mxGeometry>
        </mxCell>
        <mxCell id="D7d0Gn1hYj-LBTfzAuI3-39" style="edgeStyle=orthogonalEdgeStyle;rounded=0;orthogonalLoop=1;jettySize=auto;html=1;" edge="1" parent="1" source="D7d0Gn1hYj-LBTfzAuI3-3">
          <mxGeometry relative="1" as="geometry">
            <mxPoint x="560" y="950" as="targetPoint" />
          </mxGeometry>
        </mxCell>
        <mxCell id="D7d0Gn1hYj-LBTfzAuI3-40" value="otkaži fakturu" style="edgeLabel;html=1;align=center;verticalAlign=middle;resizable=0;points=[];" vertex="1" connectable="0" parent="D7d0Gn1hYj-LBTfzAuI3-39">
          <mxGeometry x="0.8227" y="-2" relative="1" as="geometry">
            <mxPoint as="offset" />
          </mxGeometry>
        </mxCell>
        <mxCell id="D7d0Gn1hYj-LBTfzAuI3-3" value="Kreirana faktura" style="swimlane;fontStyle=1;align=center;verticalAlign=middle;childLayout=stackLayout;horizontal=1;startSize=30;horizontalStack=0;resizeParent=0;resizeLast=1;container=0;fontColor=#000000;collapsible=0;rounded=1;arcSize=30;strokeColor=#ff0000;fillColor=#ffffc0;swimlaneFillColor=#ffffc0;dropTarget=0;" vertex="1" parent="1">
          <mxGeometry x="240" y="120" width="290" height="360" as="geometry" />
        </mxCell>
        <mxCell id="D7d0Gn1hYj-LBTfzAuI3-5" value="" style="edgeStyle=orthogonalEdgeStyle;html=1;verticalAlign=bottom;endArrow=open;endSize=8;strokeColor=#ff0000;rounded=0;entryX=0.667;entryY=0;entryDx=0;entryDy=0;entryPerimeter=0;" edge="1" source="D7d0Gn1hYj-LBTfzAuI3-3" parent="1" target="D7d0Gn1hYj-LBTfzAuI3-31">
          <mxGeometry relative="1" as="geometry">
            <mxPoint x="385" y="630" as="targetPoint" />
          </mxGeometry>
        </mxCell>
        <mxCell id="D7d0Gn1hYj-LBTfzAuI3-38" value="potvrdi plaćanje" style="edgeLabel;html=1;align=center;verticalAlign=middle;resizable=0;points=[];" vertex="1" connectable="0" parent="D7d0Gn1hYj-LBTfzAuI3-5">
          <mxGeometry x="0.8442" y="1" relative="1" as="geometry">
            <mxPoint as="offset" />
          </mxGeometry>
        </mxCell>
        <mxCell id="D7d0Gn1hYj-LBTfzAuI3-8" value="Generisana" style="rounded=1;whiteSpace=wrap;html=1;arcSize=40;fontColor=#000000;fillColor=#ffffc0;strokeColor=#ff0000;" vertex="1" parent="1">
          <mxGeometry x="325" y="240" width="120" height="40" as="geometry" />
        </mxCell>
        <mxCell id="D7d0Gn1hYj-LBTfzAuI3-10" value="" style="ellipse;html=1;shape=startState;fillColor=#000000;strokeColor=#ff0000;" vertex="1" parent="1">
          <mxGeometry x="370" y="150" width="30" height="30" as="geometry" />
        </mxCell>
        <mxCell id="D7d0Gn1hYj-LBTfzAuI3-11" value="" style="edgeStyle=orthogonalEdgeStyle;html=1;verticalAlign=bottom;endArrow=open;endSize=8;strokeColor=#ff0000;rounded=0;" edge="1" source="D7d0Gn1hYj-LBTfzAuI3-10" parent="1">
          <mxGeometry relative="1" as="geometry">
            <mxPoint x="385" y="240" as="targetPoint" />
          </mxGeometry>
        </mxCell>
        <mxCell id="D7d0Gn1hYj-LBTfzAuI3-12" value="Poslata" style="rounded=1;whiteSpace=wrap;html=1;arcSize=40;fontColor=#000000;fillColor=#ffffc0;strokeColor=#ff0000;" vertex="1" parent="1">
          <mxGeometry x="325" y="370" width="120" height="40" as="geometry" />
        </mxCell>
        <mxCell id="D7d0Gn1hYj-LBTfzAuI3-13" value="" style="edgeStyle=orthogonalEdgeStyle;html=1;verticalAlign=bottom;endArrow=open;endSize=8;strokeColor=#ff0000;rounded=0;exitX=0.5;exitY=1;exitDx=0;exitDy=0;" edge="1" source="D7d0Gn1hYj-LBTfzAuI3-8" parent="1" target="D7d0Gn1hYj-LBTfzAuI3-12">
          <mxGeometry relative="1" as="geometry">
            <mxPoint x="385" y="290" as="sourcePoint" />
            <Array as="points">
              <mxPoint x="386" y="280" />
            </Array>
          </mxGeometry>
        </mxCell>
        <mxCell id="D7d0Gn1hYj-LBTfzAuI3-14" value="Pošalji fakturu" style="edgeLabel;html=1;align=center;verticalAlign=middle;resizable=0;points=[];" vertex="1" connectable="0" parent="D7d0Gn1hYj-LBTfzAuI3-13">
          <mxGeometry x="0.0769" y="-1" relative="1" as="geometry">
            <mxPoint as="offset" />
          </mxGeometry>
        </mxCell>
        <mxCell id="D7d0Gn1hYj-LBTfzAuI3-34" style="edgeStyle=orthogonalEdgeStyle;rounded=0;orthogonalLoop=1;jettySize=auto;html=1;entryX=0.5;entryY=0;entryDx=0;entryDy=0;" edge="1" parent="1" source="D7d0Gn1hYj-LBTfzAuI3-15" target="D7d0Gn1hYj-LBTfzAuI3-36">
          <mxGeometry relative="1" as="geometry">
            <mxPoint x="350" y="950" as="targetPoint" />
          </mxGeometry>
        </mxCell>
        <mxCell id="D7d0Gn1hYj-LBTfzAuI3-35" value="otkaži fakturu" style="edgeLabel;html=1;align=center;verticalAlign=middle;resizable=0;points=[];" vertex="1" connectable="0" parent="D7d0Gn1hYj-LBTfzAuI3-34">
          <mxGeometry x="0.5915" relative="1" as="geometry">
            <mxPoint y="56" as="offset" />
          </mxGeometry>
        </mxCell>
        <mxCell id="D7d0Gn1hYj-LBTfzAuI3-15" value="Na čekanju" style="swimlane;fontStyle=1;align=center;verticalAlign=middle;childLayout=stackLayout;horizontal=1;startSize=30;horizontalStack=0;resizeParent=0;resizeLast=1;container=0;fontColor=#000000;collapsible=0;rounded=1;arcSize=30;strokeColor=#ff0000;fillColor=#ffffc0;swimlaneFillColor=#ffffc0;dropTarget=0;" vertex="1" parent="1">
          <mxGeometry x="45" y="510" width="280" height="350" as="geometry" />
        </mxCell>
        <mxCell id="D7d0Gn1hYj-LBTfzAuI3-17" value="" style="edgeStyle=elbowEdgeStyle;html=1;verticalAlign=bottom;endArrow=open;endSize=8;strokeColor=#ff0000;rounded=0;entryX=0;entryY=0.5;entryDx=0;entryDy=0;" edge="1" parent="1" target="D7d0Gn1hYj-LBTfzAuI3-31">
          <mxGeometry relative="1" as="geometry">
            <mxPoint x="240" y="980" as="targetPoint" />
            <mxPoint x="190" y="860" as="sourcePoint" />
            <Array as="points">
              <mxPoint x="190" y="920" />
            </Array>
          </mxGeometry>
        </mxCell>
        <mxCell id="D7d0Gn1hYj-LBTfzAuI3-33" value="potvrdi plaćanje" style="edgeLabel;html=1;align=center;verticalAlign=middle;resizable=0;points=[];" vertex="1" connectable="0" parent="D7d0Gn1hYj-LBTfzAuI3-17">
          <mxGeometry x="-0.346" y="1" relative="1" as="geometry">
            <mxPoint as="offset" />
          </mxGeometry>
        </mxCell>
        <mxCell id="D7d0Gn1hYj-LBTfzAuI3-19" value="" style="ellipse;html=1;shape=startState;fillColor=#000000;strokeColor=#ff0000;" vertex="1" parent="1">
          <mxGeometry x="170" y="540" width="30" height="30" as="geometry" />
        </mxCell>
        <mxCell id="D7d0Gn1hYj-LBTfzAuI3-20" value="" style="edgeStyle=orthogonalEdgeStyle;html=1;verticalAlign=bottom;endArrow=open;endSize=8;strokeColor=#ff0000;rounded=0;" edge="1" source="D7d0Gn1hYj-LBTfzAuI3-19" parent="1">
          <mxGeometry relative="1" as="geometry">
            <mxPoint x="185" y="630" as="targetPoint" />
          </mxGeometry>
        </mxCell>
        <mxCell id="D7d0Gn1hYj-LBTfzAuI3-26" style="edgeStyle=orthogonalEdgeStyle;rounded=0;orthogonalLoop=1;jettySize=auto;html=1;entryX=0;entryY=0.5;entryDx=0;entryDy=0;" edge="1" parent="1" source="D7d0Gn1hYj-LBTfzAuI3-21" target="D7d0Gn1hYj-LBTfzAuI3-24">
          <mxGeometry relative="1" as="geometry" />
        </mxCell>
        <mxCell id="D7d0Gn1hYj-LBTfzAuI3-28" value="PošaljiPodsetnik" style="edgeLabel;html=1;align=center;verticalAlign=middle;resizable=0;points=[];" vertex="1" connectable="0" parent="D7d0Gn1hYj-LBTfzAuI3-26">
          <mxGeometry x="0.4234" y="-1" relative="1" as="geometry">
            <mxPoint as="offset" />
          </mxGeometry>
        </mxCell>
        <mxCell id="D7d0Gn1hYj-LBTfzAuI3-27" style="edgeStyle=orthogonalEdgeStyle;rounded=0;orthogonalLoop=1;jettySize=auto;html=1;exitX=1;exitY=0.75;exitDx=0;exitDy=0;" edge="1" parent="1" source="D7d0Gn1hYj-LBTfzAuI3-24" target="D7d0Gn1hYj-LBTfzAuI3-21">
          <mxGeometry relative="1" as="geometry" />
        </mxCell>
        <mxCell id="D7d0Gn1hYj-LBTfzAuI3-29" value="Text" style="edgeLabel;html=1;align=center;verticalAlign=middle;resizable=0;points=[];" vertex="1" connectable="0" parent="D7d0Gn1hYj-LBTfzAuI3-27">
          <mxGeometry x="0.3504" y="3" relative="1" as="geometry">
            <mxPoint x="45" y="20" as="offset" />
          </mxGeometry>
        </mxCell>
        <mxCell id="D7d0Gn1hYj-LBTfzAuI3-30" value="Ignorisan podsetnik" style="edgeLabel;html=1;align=center;verticalAlign=middle;resizable=0;points=[];" vertex="1" connectable="0" parent="D7d0Gn1hYj-LBTfzAuI3-27">
          <mxGeometry x="-0.3915" y="4" relative="1" as="geometry">
            <mxPoint as="offset" />
          </mxGeometry>
        </mxCell>
        <mxCell id="D7d0Gn1hYj-LBTfzAuI3-21" value="Čeka plaćanje" style="rounded=1;whiteSpace=wrap;html=1;arcSize=40;fontColor=#000000;fillColor=#ffffc0;strokeColor=#ff0000;" vertex="1" parent="1">
          <mxGeometry x="125" y="635" width="120" height="40" as="geometry" />
        </mxCell>
        <mxCell id="D7d0Gn1hYj-LBTfzAuI3-24" value="Activity" style="rounded=1;whiteSpace=wrap;html=1;arcSize=40;fontColor=#000000;fillColor=#ffffc0;strokeColor=#ff0000;" vertex="1" parent="1">
          <mxGeometry x="125" y="740" width="120" height="40" as="geometry" />
        </mxCell>
        <mxCell id="D7d0Gn1hYj-LBTfzAuI3-31" value="Plaćena" style="rounded=1;whiteSpace=wrap;html=1;arcSize=40;fontColor=#000000;fillColor=#ffffc0;strokeColor=#ff0000;" vertex="1" parent="1">
          <mxGeometry x="280" y="960" width="120" height="40" as="geometry" />
        </mxCell>
        <mxCell id="D7d0Gn1hYj-LBTfzAuI3-32" value="" style="edgeStyle=orthogonalEdgeStyle;html=1;verticalAlign=bottom;endArrow=open;endSize=8;strokeColor=#ff0000;rounded=0;entryX=0.5;entryY=0;entryDx=0;entryDy=0;" edge="1" source="D7d0Gn1hYj-LBTfzAuI3-31" parent="1" target="D7d0Gn1hYj-LBTfzAuI3-41">
          <mxGeometry relative="1" as="geometry">
            <mxPoint x="340" y="1060" as="targetPoint" />
          </mxGeometry>
        </mxCell>
        <mxCell id="D7d0Gn1hYj-LBTfzAuI3-36" value="Otkazana" style="rounded=1;whiteSpace=wrap;html=1;arcSize=40;fontColor=#000000;fillColor=#ffffc0;strokeColor=#ff0000;" vertex="1" parent="1">
          <mxGeometry x="460" y="960" width="120" height="40" as="geometry" />
        </mxCell>
        <mxCell id="D7d0Gn1hYj-LBTfzAuI3-37" value="" style="edgeStyle=orthogonalEdgeStyle;html=1;verticalAlign=bottom;endArrow=open;endSize=8;strokeColor=#ff0000;rounded=0;entryX=0.5;entryY=0;entryDx=0;entryDy=0;" edge="1" source="D7d0Gn1hYj-LBTfzAuI3-36" parent="1" target="D7d0Gn1hYj-LBTfzAuI3-41">
          <mxGeometry relative="1" as="geometry">
            <mxPoint x="520" y="1060" as="targetPoint" />
          </mxGeometry>
        </mxCell>
        <mxCell id="D7d0Gn1hYj-LBTfzAuI3-41" value="" style="ellipse;html=1;shape=endState;fillColor=#000000;strokeColor=#ff0000;" vertex="1" parent="1">
          <mxGeometry x="415" y="1050" width="30" height="30" as="geometry" />
        </mxCell>
      </root>
    </mxGraphModel>
  </diagram>
</mxfile>
